<svg xmlns="http://www.w3.org/2000/svg" version="1.0" width="300.000000pt" height="464.000000pt" viewBox="0 0 300.000000 464.000000" preserveAspectRatio="xMidYMid meet">
<metadata fill="#ffffff">
Created by potrace 1.10, written by Peter Selinger 2001-2011
</metadata>
<g transform="translate(0.000000,464.000000) scale(0.100000,-0.100000)" fill="#ffffff" stroke="none">
<path d="M968 4535 c-56 -21 -94 -53 -121 -104 -22 -41 -34 -107 -97 -569 -39 -288 -70 -534 -68 -547 3 -24 4 -24 53 14 300 231 746 305 1127 185 134 -42 342 -154 387 -208 19 -22 31 -20 31 5 0 12 -16 103 -35 203 -18 99 -64 336 -100 526 -36 190 -71 358 -77 374 -18 46 -57 85 -109 111 l-48 25 -453 -1 c-355 0 -461 -3 -490 -14z m758 -30 c-3 -8 -1 -15 4 -15 6 0 10 7 10 16 0 17 22 16 64 -1 13 -6 17 -5 12 3 -9 16 90 4 129 -16 29 -15 34 -19 68 -59 18 -21 48 -125 62 -213 14 -92 76 -408 102 -519 4 -16 2 -22 -6 -17 -16 10 -14 -4 4 -24 8 -9 17 -34 20 -55 3 -22 10 -69 16 -105 5 -36 12 -77 14 -92 4 -22 1 -26 -13 -21 -9 3 -24 12 -32 19 -8 6 -44 27 -80 44 -36 18 -72 38 -80 45 -22 17 -191 70 -290 92 -64 13 -129 18 -260 18 -151 0 -188 -3 -270 -24 -131 -32 -257 -82 -373 -148 -54 -31 -100 -53 -103 -51 -5 5 3 63 31 243 8 50 16 113 19 142 3 28 10 80 15 115 6 34 17 119 26 188 9 69 18 136 20 150 3 14 9 56 14 95 12 79 46 137 101 170 33 19 56 20 390 25 195 3 363 7 374 8 12 1 16 -3 12 -13z" fill="#ffffff"/>
<path d="M1316 3394 c-221 -34 -419 -131 -581 -285 -102 -97 -166 -183 -225 -304 -63 -127 -86 -202 -107 -345 -48 -332 83 -699 333 -929 159 -147 352 -244 562 -281 83 -15 269 -15 357 0 419 69 770 389 875 799 164 636 -270 1270 -925 1350 -113 14 -176 13 -289 -5z m406 -53 c107 -26 224 -75 314 -132 67 -42 85 -56 165 -127 42 -37 149 -165 149 -177 0 -5 7 -16 15 -25 21 -23 95 -170 95 -189 0 -9 7 -26 14 -37 8 -12 15 -30 14 -40 0 -10 8 -48 18 -84 25 -87 25 -336 1 -425 -67 -246 -147 -389 -305 -542 -36 -35 -68 -63 -72 -63 -5 0 -10 -4 -12 -8 -6 -15 -156 -109 -188 -117 -3 -1 -27 -12 -53 -24 -27 -13 -60 -25 -74 -27 -14 -3 -33 -9 -42 -13 -69 -36 -374 -47 -496 -17 -38 9 -81 19 -95 22 -14 3 -31 11 -38 17 -7 6 -38 19 -68 29 -62 21 -183 90 -225 130 -16 14 -29 24 -29 21 0 -16 -170 172 -205 227 -279 433 -216 996 149 1339 153 145 372 253 561 277 28 3 52 8 55 11 13 13 271 -6 352 -26z" fill="#ffffff"/>
<path d="M1390 3277 c-3 -3 -31 -8 -63 -11 -141 -17 -345 -108 -457 -206 -92 -79 -133 -126 -189 -213 -159 -246 -201 -528 -120 -797 19 -65 49 -141 59 -150 3 -3 15 -25 26 -50 23 -48 130 -185 185 -236 74 -69 262 -181 332 -198 15 -3 27 -11 27 -16 0 -6 11 -8 24 -4 13 3 34 0 46 -6 33 -18 92 -24 230 -23 98 0 142 5 205 22 44 13 87 24 96 26 36 7 167 74 229 116 123 83 264 249 326 384 11 22 21 42 24 45 3 3 7 12 9 20 1 8 14 57 27 108 37 147 39 230 8 462 -3 19 -5 41 -6 48 -1 6 -6 12 -11 12 -6 0 -7 3 -4 6 3 4 -3 18 -13 32 -11 13 -20 32 -20 40 0 26 -81 164 -137 234 -53 66 -167 172 -207 194 -12 6 -48 26 -81 45 -33 19 -85 43 -115 53 -30 10 -61 23 -67 29 -7 5 -13 7 -13 4 0 -3 -24 1 -52 9 -52 14 -288 31 -298 21z m246 -48 c353 -62 643 -329 735 -674 31 -120 36 -294 11 -415 -72 -347 -328 -618 -674 -712 -121 -33 -348 -32 -463 1 -360 105 -618 389 -676 745 -15 95 -7 287 16 376 9 36 41 115 70 175 128 262 354 437 645 499 78 17 254 20 336 5z" fill="#ffffff"/>
<path d="M1425 2995 l-25 -24 0 -395 0 -394 253 -146 c175 -101 261 -146 283 -146 70 0 101 95 46 142 -16 12 -117 73 -225 133 l-196 110 -1 348 0 348 -25 24 c-15 16 -36 25 -55 25 -19 0 -40 -9 -55 -25z m86 -32 c7 -7 12 -131 13 -345 3 -254 6 -339 16 -355 8 -11 39 -36 69 -54 142 -83 191 -114 191 -121 0 -5 7 -8 15 -8 8 0 15 -6 15 -12 0 -10 2 -10 8 0 6 9 23 3 66 -25 59 -39 75 -67 57 -101 -12 -22 -43 -20 -73 5 -9 8 -21 12 -26 9 -5 -3 -15 1 -22 9 -7 8 -9 15 -4 15 5 0 1 7 -9 15 -11 7 -26 11 -34 8 -9 -4 -21 1 -29 11 -6 10 -16 18 -21 18 -24 3 -43 11 -43 19 0 5 -5 9 -10 9 -6 0 -34 15 -63 33 -29 18 -73 44 -100 57 -101 53 -92 14 -94 389 -1 182 2 331 7 331 5 0 5 14 0 31 -13 45 2 78 35 75 14 -2 30 -7 36 -13z" fill="#ffffff"/>
<path d="M2666 2468 c-13 -18 -16 -51 -16 -150 0 -115 2 -130 20 -148 25 -25 72 -26 93 -2 14 15 17 42 17 154 0 118 -2 137 -18 151 -27 25 -78 22 -96 -5z m79 -150 c0 -110 -8 -134 -39 -122 -15 6 -17 21 -15 123 1 97 4 117 17 122 30 11 38 -14 37 -123z" fill="#ffffff"/>
<path d="M690 1344 c0 -35 195 -1089 206 -1116 9 -20 30 -50 48 -67 63 -61 61 -61 553 -61 287 0 462 4 487 11 51 14 121 80 140 132 8 23 43 263 76 532 33 270 64 509 69 533 5 23 7 42 4 42 -2 0 -33 -23 -69 -50 -72 -55 -235 -139 -329 -169 -151 -47 -213 -56 -405 -55 -167 0 -195 3 -286 27 -169 44 -311 109 -429 198 -36 27 -65 46 -65 43z m1540 -110 c0 -8 -4 -14 -8 -14 -4 0 -8 -29 -9 -65 -1 -36 -6 -71 -10 -78 -4 -6 -8 -28 -9 -47 -2 -32 -35 -300 -47 -381 -6 -35 -12 -88 -22 -169 -27 -238 -44 -279 -135 -325 -32 -17 -73 -18 -485 -19 -495 -1 -473 -3 -542 62 -33 30 -44 61 -68 193 -43 236 -76 429 -80 464 -1 17 -5 37 -8 45 -9 25 -19 73 -22 110 -2 34 -32 192 -41 219 -6 19 54 6 81 -18 11 -10 46 -28 77 -40 38 -16 55 -27 51 -36 -3 -10 2 -13 22 -9 15 3 33 0 40 -6 7 -6 21 -13 31 -15 11 -2 56 -15 102 -29 179 -54 416 -59 614 -12 127 30 270 85 354 137 34 21 65 35 68 32 3 -4 6 -2 6 3 0 5 9 10 20 11 11 1 20 -4 20 -13z" fill="#ffffff"/>
</g>
</svg>